<!-- Generated by IcoMoon.io -->
<svg version="1.1" xmlns="http://www.w3.org/2000/svg" width="32" height="32" viewBox="0 0 32 32">
<title>envelope</title>
<path d="M25.333 1.333h-18.667c-3.68 0.005-6.662 2.987-6.667 6.666v16c0.005 3.68 2.987 6.662 6.666 6.667h18.667c3.68-0.005 6.662-2.987 6.667-6.666v-16c-0.005-3.68-2.987-6.662-6.666-6.667h-0zM6.667 4h18.667c1.671 0.003 3.102 1.031 3.697 2.489l0.010 0.027-10.211 10.212c-0.725 0.722-1.725 1.169-2.829 1.169s-2.104-0.446-2.829-1.169l-10.211-10.212c0.605-1.485 2.035-2.513 3.706-2.516h0zM25.333 28h-18.667c-2.209 0-4-1.791-4-4v0-14l8.619 8.613c1.208 1.205 2.874 1.949 4.715 1.949s3.507-0.745 4.715-1.95l8.619-8.613v14c0 2.209-1.791 4-4 4v0z"></path>
</svg>
